<svg width="247" height="240" viewBox="0 0 247 240" fill="none" xmlns="http://www.w3.org/2000/svg">
<path fill-rule="evenodd" clip-rule="evenodd" d="M204.24 183.241C204.947 181.319 202.546 179.759 200.937 181.026C186.644 192.285 168.607 199.002 149 199.002C102.608 199.002 65 161.394 65 115.002C65 68.61 102.608 31.002 149 31.002C152.687 31.002 156.318 31.2395 159.88 31.7C162.159 31.9949 163.443 28.7876 161.388 27.7577C146.377 20.2355 129.433 16.002 111.5 16.002C49.9202 16.002 0 65.9222 0 127.502C0 189.082 49.9202 239.002 111.5 239.002C117.993 239.002 124.356 238.447 130.545 237.382C132.704 237.01 132.6 233.957 130.458 233.498C118.487 230.932 105.925 226.49 93.1941 220.201C91.0476 219.141 92.3303 216.218 94.6298 216.884C133.797 228.237 159.342 227.128 176.466 218.131C183.42 213.137 189.776 207.362 195.406 200.935C198.991 195.657 201.865 189.697 204.24 183.241ZM13.3541 95C26.9884 46.2009 82.9905 29.9385 119.705 26.3331C122.025 26.1053 122.464 29.1133 120.246 29.8304C11.4365 65.0053 16.9254 115.477 22.8228 169.704L22.8228 169.704L22.8228 169.704C22.8667 170.108 22.9106 170.512 22.9545 170.916C23.2172 173.333 20.3591 173.802 19.8087 171.433C9.81776 128.426 9.52519 108.704 13.3541 95ZM65.2585 73.2907C66.5661 71.2852 64.1882 69.1378 62.548 70.8818C32.458 102.877 19.7396 138.476 28.879 165.999C38.4686 194.878 72.2014 205.093 111.835 215.107C112.523 215.281 112.875 214.324 112.235 214.015C58.1236 187.925 6.68757 163.125 65.2585 73.2907Z" fill="white"/>
<path d="M183.324 8.15349C179.381 49.3855 116.403 121.176 83.0355 154.372C81.923 155.479 82.4752 157.295 84.038 157.437C95.6331 158.49 117.696 155.044 132.446 154.314C142.157 153.833 172.243 161.92 188.293 170.433C189.685 171.172 191.419 170.212 191.396 168.636C190.326 95.578 187.304 -33.4618 183.324 8.15349Z" fill="white"/>
<path d="M195.027 169.655C222.202 133.072 205.949 73.6195 194.101 55.3812C209.858 48.471 243.944 88.8933 243.301 123.276C242.658 157.658 188.336 178.662 195.027 169.655Z" fill="white"/>
</svg>
