<svg width="237" height="63" viewBox="0 0 237 63" fill="none" xmlns="http://www.w3.org/2000/svg">
<path d="M0.0320001 53V1.16H10.592V22.472H19.744V1.16H30.304V53H19.744V30.024H10.592V53H0.0320001ZM35.719 53L45.767 1.16H57.479L67.463 53H57.671L55.815 41.608H47.623L45.639 53H35.719ZM48.583 35.144H54.791L51.655 14.216L48.583 35.144ZM72.8445 53V1.16H97.8685V9.16H83.4045V22.984H85.6445C89.0578 22.984 91.9165 23.496 94.2205 24.52C96.5245 25.544 98.2738 27.1653 99.4685 29.384C100.663 31.56 101.261 34.4187 101.261 37.96C101.261 41.032 100.855 43.5493 100.045 45.512C99.2765 47.432 98.1672 48.9467 96.7165 50.056C95.2658 51.1653 93.5378 51.9333 91.5325 52.36C89.5272 52.7867 87.3298 53 84.9405 53H72.8445ZM83.4045 46.024H85.0045C86.5832 46.024 87.8632 45.7467 88.8445 45.192C89.8258 44.6373 90.5085 43.7627 90.8925 42.568C91.3192 41.3307 91.5112 39.7307 91.4685 37.768C91.4258 35.5067 90.9565 33.7147 90.0605 32.392C89.1645 31.0267 87.4365 30.344 84.8765 30.344H83.4045V46.024ZM121.806 53.704C118.008 53.704 115 53.0213 112.782 51.656C110.563 50.2907 108.963 48.3493 107.982 45.832C107.043 43.272 106.574 40.2213 106.574 36.68V17.352C106.574 13.8107 107.043 10.7813 107.982 8.264C108.963 5.74666 110.563 3.82667 112.782 2.504C115 1.18133 118.008 0.519997 121.806 0.519997C125.646 0.519997 128.675 1.20266 130.894 2.568C133.155 3.89066 134.755 5.81067 135.694 8.328C136.675 10.8027 137.166 13.8107 137.166 17.352V36.68C137.166 40.2213 136.675 43.272 135.694 45.832C134.755 48.3493 133.155 50.2907 130.894 51.656C128.675 53.0213 125.646 53.704 121.806 53.704ZM121.806 46.088C123.171 46.088 124.174 45.7893 124.814 45.192C125.454 44.552 125.88 43.72 126.094 42.696C126.307 41.6293 126.414 40.4987 126.414 39.304V14.792C126.414 13.5973 126.307 12.488 126.094 11.464C125.88 10.44 125.454 9.62933 124.814 9.032C124.174 8.392 123.171 8.072 121.806 8.072C120.525 8.072 119.566 8.392 118.926 9.032C118.286 9.62933 117.859 10.44 117.646 11.464C117.432 12.488 117.326 13.5973 117.326 14.792V39.304C117.326 40.4987 117.411 41.6293 117.582 42.696C117.795 43.72 118.222 44.552 118.862 45.192C119.502 45.7893 120.483 46.088 121.806 46.088ZM144.217 53V1.16H160.665C163.779 1.16 166.318 1.75733 168.281 2.952C170.243 4.104 171.694 5.78933 172.632 8.008C173.614 10.2267 174.104 12.9147 174.104 16.072C174.104 19.784 173.465 22.6853 172.185 24.776C170.947 26.8667 169.241 28.36 167.065 29.256C164.889 30.1093 162.393 30.536 159.577 30.536H154.777V53H144.217ZM154.777 23.112H158.489C160.025 23.112 161.198 22.8773 162.009 22.408C162.862 21.896 163.438 21.1067 163.737 20.04C164.035 18.9733 164.185 17.608 164.185 15.944C164.185 14.3653 164.057 13.0427 163.801 11.976C163.587 10.9093 163.075 10.0773 162.265 9.48C161.454 8.88267 160.174 8.584 158.425 8.584H154.777V23.112ZM184.393 53V9.032H176.393V1.16H202.889V9.032H195.017V53H184.393ZM207.08 62.664V55.56C209 55.6453 210.621 55.5813 211.944 55.368C213.266 55.1547 214.312 54.728 215.08 54.088C215.89 53.4907 216.402 52.6587 216.616 51.592C216.829 50.5253 216.765 49.2027 216.424 47.624L205.032 1.16H214.888L219.304 22.664L221.544 37.064L223.272 22.6L227.048 1.16H236.968L226.536 49.032C226.066 51.336 225.533 53.2773 224.936 54.856C224.338 56.4773 223.592 57.8213 222.696 58.888C221.8 59.9547 220.669 60.7653 219.304 61.32C217.938 61.9173 216.253 62.3013 214.248 62.472C212.242 62.6853 209.853 62.7493 207.08 62.664Z" fill="white"/>
</svg>
